<?xml version="1.0" encoding="UTF-8"?> <!-- Creator: CorelDRAW 2017 --> <svg xmlns="http://www.w3.org/2000/svg" xmlns:xlink="http://www.w3.org/1999/xlink" xml:space="preserve" width="1882px" height="1376px" style="shape-rendering:geometricPrecision; text-rendering:geometricPrecision; image-rendering:optimizeQuality; fill-rule:evenodd; clip-rule:evenodd" viewBox="0 0 2533 1853"> <defs> <style type="text/css"> <![CDATA[ .fil0 {fill:#474341} ]]> </style> </defs> <g id="Слой_x0020_1"> <metadata id="CorelCorpID_0Corel-Layer"></metadata> <g id="_2226980526240"> <polygon class="fil0" points="1785,1079 1995,881 2311,1107 2133,1322 "></polygon> <polygon class="fil0" points="1236,696 1499,526 1898,812 1677,1004 "></polygon> <g> <polygon class="fil0" points="741,350 1036,194 1379,440 1112,610 "></polygon> <polygon class="fil0" points="1171,122 1401,0 1710,229 1502,362 "></polygon> <polygon class="fil0" points="1620,448 1826,314 2172,571 1999,722 "></polygon> <polygon class="fil0" points="2092,790 2257,633 2533,838 2393,1008 "></polygon> <polygon class="fil0" points="0,743 550,452 940,719 445,1034 "></polygon> <polygon class="fil0" points="579,1122 1067,806 1535,1128 1131,1483 "></polygon> <polygon class="fil0" points="1265,1571 1650,1207 2019,1461 1696,1853 "></polygon> </g> </g> </g> </svg> 